<svg width="132" height="50" viewBox="0 0 132 50" fill="none" xmlns="http://www.w3.org/2000/svg">
<g clip-path="url(#clip0_349_2674)">
<path d="M128 0H4C1.79086 0 0 1.79086 0 4V46C0 48.2091 1.79086 50 4 50H128C130.209 50 132 48.2091 132 46V4C132 1.79086 130.209 0 128 0Z" fill="white"/>
<path d="M28.7559 24.1994C28.7559 21.0994 31.3559 19.5994 31.4559 19.4994C29.9559 17.3994 27.7559 17.0994 26.9559 16.9994C25.0559 16.7994 23.1559 18.0994 22.2559 18.0994C21.2559 18.0994 19.7559 16.9994 18.1559 16.9994C16.0559 16.9994 14.1559 18.1994 13.0559 20.0994C10.8559 23.8994 12.4559 29.4994 14.5559 32.5994C15.6559 34.0994 16.8559 35.7994 18.4559 35.6994C20.0559 35.5994 20.6559 34.6994 22.5559 34.6994C24.4559 34.6994 24.9559 35.6994 26.6559 35.6994C28.3559 35.6994 29.4559 34.1994 30.4559 32.6994C31.6559 30.9994 32.1559 29.2994 32.1559 29.1994C32.0559 29.0994 28.7559 27.8994 28.7559 24.1994Z" fill="#31C5A1"/>
<path d="M25.656 15C26.456 13.9 27.056 12.5 26.956 11C25.756 11.1 24.156 11.8 23.356 12.9C22.556 13.8 21.856 15.3 22.056 16.7C23.356 16.8 24.756 16 25.656 15Z" fill="#31C5A1"/>
<path d="M51.5562 35.4996H49.3563L48.1562 31.6996H43.9562L42.7562 35.4996H40.6562L44.7562 22.5996H47.3563L51.5562 35.4996ZM47.7562 30.0996L46.6562 26.6996C46.5564 26.3996 46.3562 25.4996 45.9562 24.2996C45.8562 24.7996 45.6563 25.6996 45.3563 26.6996L44.2562 30.0996H47.7562Z" fill="#31C5A1"/>
<path d="M62.2559 30.7996C62.2559 32.3996 61.8559 33.5996 60.9559 34.5996C60.1559 35.3996 59.2559 35.7996 58.0559 35.7996C56.8559 35.7996 55.9559 35.3996 55.4559 34.4996V39.3996H53.3559V29.3996C53.3559 28.3996 53.3559 27.3996 53.2559 26.2996H55.0559L55.1559 27.7996C55.8559 26.6996 56.8559 26.0996 58.2559 26.0996C59.3559 26.0996 60.2559 26.4996 60.9559 27.3996C61.8559 28.1996 62.2559 29.2996 62.2559 30.7996ZM60.1559 30.7996C60.1559 29.8996 59.9559 29.0996 59.5559 28.5996C59.1559 27.9996 58.5559 27.6996 57.7559 27.6996C57.2559 27.6996 56.7559 27.8996 56.3559 28.1996C55.9559 28.4996 55.6559 28.9996 55.5559 29.4996C55.4559 29.7996 55.4559 29.9996 55.4559 30.0996V31.6996C55.4559 32.3996 55.6559 32.8996 56.0559 33.3996C56.4559 33.8996 57.0559 34.0996 57.6559 34.0996C58.4559 34.0996 59.0559 33.7996 59.4559 33.1996C59.8559 32.5996 60.1559 31.7996 60.1559 30.7996Z" fill="#31C5A1"/>
<path d="M72.9551 30.7996C72.9551 32.3996 72.5551 33.5996 71.6551 34.5996C70.8551 35.3996 69.9551 35.7996 68.7551 35.7996C67.5551 35.7996 66.6551 35.3996 66.1551 34.4996V39.3996H64.0551V29.3996C64.0551 28.3996 64.0551 27.3996 63.9551 26.2996H65.7551L65.8551 27.7996C66.5551 26.6996 67.5551 26.0996 68.9551 26.0996C70.0551 26.0996 70.9551 26.4996 71.6551 27.3996C72.5551 28.1996 72.9551 29.2996 72.9551 30.7996ZM70.8551 30.7996C70.8551 29.8996 70.6551 29.0996 70.2551 28.5996C69.8551 27.9996 69.2551 27.6996 68.4551 27.6996C67.9551 27.6996 67.4551 27.8996 67.0551 28.1996C66.6551 28.4996 66.3551 28.9996 66.2551 29.4996C66.1551 29.7996 66.1551 29.9996 66.1551 30.0996V31.6996C66.1551 32.3996 66.3551 32.8996 66.7551 33.3996C67.1551 33.8996 67.7551 34.0996 68.3551 34.0996C69.1551 34.0996 69.7551 33.7996 70.1551 33.1996C70.5551 32.5996 70.8551 31.7996 70.8551 30.7996Z" fill="#31C5A1"/>
<path d="M84.8551 31.9C84.8551 33 84.4551 33.9 83.7551 34.6C82.9551 35.4 81.7551 35.7 80.2551 35.7C78.8551 35.7 77.7551 35.4 76.9551 34.9L77.4551 33.2C78.3551 33.7 79.3551 34 80.4551 34C81.2551 34 81.8551 33.8 82.2551 33.5C82.6551 33.1 82.8551 32.7 82.8551 32.1C82.8551 31.6 82.6551 31.1 82.3551 30.8C81.9551 30.4 81.3551 30.1 80.5551 29.8C78.2551 29 77.1551 27.7 77.1551 26.1C77.1551 25 77.5551 24.2 78.3551 23.5C79.1551 22.8 80.1551 22.5 81.5551 22.5C82.7551 22.5 83.6551 22.7 84.4551 23.1L83.9551 24.8C83.2551 24.4 82.4551 24.2 81.4551 24.2C80.7551 24.2 80.1551 24.4 79.7551 24.7C79.4551 25 79.2551 25.4 79.2551 25.9C79.2551 26.4 79.4551 26.8 79.8551 27.2C80.1551 27.5 80.8551 27.8 81.7551 28.2C82.8551 28.6 83.6551 29.2 84.2551 29.8C84.6551 30.3 84.8551 31 84.8551 31.9Z" fill="#31C5A1"/>
<path d="M91.7566 27.8004H89.4566V32.3004C89.4566 33.4004 89.8566 34.0004 90.6566 34.0004C91.0566 34.0004 91.3566 34.0004 91.5566 33.9004L91.6566 35.5004C91.2566 35.7004 90.7566 35.7004 90.0566 35.7004C89.2566 35.7004 88.5566 35.5004 88.1566 35.0004C87.6566 34.5004 87.4566 33.7004 87.4566 32.5004V27.8004H86.0566V26.2004H87.4566V24.5004L89.4566 23.9004V26.2004H91.7566V27.8004Z" fill="#31C5A1"/>
<path d="M102.055 30.8C102.055 32.2 101.655 33.4 100.855 34.3C99.9551 35.2 98.8551 35.7 97.4551 35.7C96.0551 35.7 94.9551 35.2 94.1551 34.3C93.3551 33.4 92.9551 32.3 92.9551 30.9C92.9551 29.5 93.3551 28.3 94.2551 27.4C95.0551 26.5 96.2551 26 97.6551 26C99.0551 26 100.155 26.5 100.955 27.4C101.655 28.3 102.055 29.4 102.055 30.8ZM99.8551 30.9C99.8551 30 99.6551 29.3 99.2551 28.7C98.8551 28 98.1551 27.6 97.3551 27.6C96.5551 27.6 95.8551 28 95.4551 28.7C95.0551 29.3 94.8551 30.1 94.8551 30.9C94.8551 31.8 95.0551 32.5 95.4551 33.1C95.8551 33.8 96.5551 34.2 97.3551 34.2C98.1551 34.2 98.7551 33.8 99.2551 33.1C99.6551 32.5 99.8551 31.7 99.8551 30.9Z" fill="#31C5A1"/>
<path d="M108.756 28.0004C108.556 28.0004 108.356 27.9004 108.056 27.9004C107.356 27.9004 106.756 28.2004 106.356 28.7004C106.056 29.2004 105.856 29.8004 105.856 30.5004V35.4004H103.756V29.0004C103.756 27.9004 103.756 27.0004 103.656 26.1004H105.456L105.556 27.9004H105.656C105.856 27.3004 106.256 26.8004 106.656 26.4004C107.156 26.1004 107.656 25.9004 108.156 25.9004C108.356 25.9004 108.556 25.9004 108.656 25.9004V28.0004H108.756Z" fill="#31C5A1"/>
<path d="M117.956 30.4C117.956 30.8 117.956 31.1 117.856 31.3H111.656C111.656 32.2 111.956 32.9 112.556 33.4C113.056 33.8 113.756 34.1 114.556 34.1C115.456 34.1 116.356 34 117.056 33.7L117.356 35.1C116.456 35.5 115.456 35.7 114.256 35.7C112.856 35.7 111.656 35.3 110.856 34.4C110.056 33.6 109.656 32.4 109.656 31C109.656 29.6 110.056 28.4 110.756 27.5C111.556 26.5 112.656 26 114.056 26C115.356 26 116.456 26.5 117.056 27.5C117.656 28.3 117.956 29.3 117.956 30.4ZM115.956 29.9C115.956 29.3 115.856 28.8 115.556 28.3C115.156 27.7 114.656 27.4 113.956 27.4C113.256 27.4 112.756 27.7 112.356 28.2C112.056 28.6 111.856 29.2 111.756 29.8H115.956V29.9Z" fill="#31C5A1"/>
<path d="M47.0555 14.6996C47.0555 15.7996 46.7555 16.6996 46.0555 17.2996C45.4555 17.7996 44.5555 18.0996 43.3555 18.0996C42.7555 18.0996 42.2555 18.0996 41.8555 17.9996V11.6996C42.3555 11.5996 42.9555 11.5996 43.6555 11.5996C44.7555 11.5996 45.5555 11.7996 46.1555 12.2996C46.7555 12.8996 47.0555 13.6996 47.0555 14.6996ZM46.0555 14.6996C46.0555 13.9996 45.8555 13.3996 45.4555 12.9996C45.0555 12.5996 44.4555 12.3996 43.7555 12.3996C43.4555 12.3996 43.1555 12.3996 42.9555 12.4996V17.1996C43.0555 17.1996 43.3555 17.1996 43.6555 17.1996C44.4555 17.1996 45.0555 16.9996 45.4555 16.5996C45.7555 16.1996 46.0555 15.4996 46.0555 14.6996Z" fill="#545659"/>
<path d="M52.7559 15.6988C52.7559 16.3988 52.5559 16.9988 52.1559 17.3988C51.7559 17.8988 51.1559 18.0988 50.4559 18.0988C49.7559 18.0988 49.2559 17.8988 48.8559 17.3988C48.4559 16.9988 48.2559 16.3988 48.2559 15.6988C48.2559 14.9988 48.4559 14.3988 48.8559 13.9988C49.2559 13.4988 49.8559 13.2988 50.5559 13.2988C51.2559 13.2988 51.7559 13.4988 52.1559 13.9988C52.5559 14.3988 52.7559 14.9988 52.7559 15.6988ZM51.7559 15.6988C51.7559 15.2988 51.6559 14.8988 51.4559 14.5988C51.2559 14.1988 50.9559 14.0988 50.5559 14.0988C50.1559 14.0988 49.8559 14.2988 49.6559 14.5988C49.4559 14.8988 49.3559 15.2988 49.3559 15.6988C49.3559 16.0988 49.4559 16.4988 49.6559 16.7988C49.8559 17.1988 50.1559 17.2988 50.5559 17.2988C50.9559 17.2988 51.2559 17.0988 51.4559 16.6988C51.6559 16.4988 51.7559 16.0988 51.7559 15.6988Z" fill="#545659"/>
<path d="M60.3559 13.4004L58.9559 18.0004H58.0559L57.4559 16.0004C57.2559 15.5004 57.1559 15.0004 57.0559 14.5004C56.9559 15.0004 56.8559 15.5004 56.6559 16.0004L56.0559 18.0004H55.1559L53.7559 13.4004H54.7559L55.2559 15.6004C55.3559 16.1004 55.4559 16.6004 55.5559 17.1004C55.6559 16.7004 55.7559 16.2004 55.9559 15.6004L56.6559 13.4004H57.4559L58.0559 15.5004C58.2559 16.0004 58.3559 16.5004 58.4559 17.0004C58.5559 16.5004 58.6559 16.0004 58.7559 15.5004L59.3559 13.4004H60.3559Z" fill="#545659"/>
<path d="M65.6559 17.9988H64.6559V15.3988C64.6559 14.5988 64.3559 14.1988 63.7559 14.1988C63.4559 14.1988 63.2559 14.2988 63.0559 14.4988C62.8559 14.6988 62.7559 14.9988 62.7559 15.2988V17.9988H61.7559V14.6988C61.7559 14.2988 61.7559 13.8988 61.7559 13.3988H62.6559V14.0988C62.7559 13.8988 62.9559 13.6988 63.1559 13.4988C63.4559 13.3988 63.7559 13.2988 64.0559 13.2988C64.4559 13.2988 64.8559 13.3988 65.1559 13.6988C65.5559 13.9988 65.6559 14.4988 65.6559 15.1988V17.9988Z" fill="#545659"/>
<path d="M68.4551 17.9988H67.4551V11.2988H68.4551V17.9988Z" fill="#545659"/>
<path d="M74.4551 15.6988C74.4551 16.3988 74.2551 16.9988 73.8551 17.3988C73.4551 17.8988 72.8551 18.0988 72.1551 18.0988C71.4551 18.0988 70.9551 17.8988 70.5551 17.3988C70.1551 16.9988 69.9551 16.3988 69.9551 15.6988C69.9551 14.9988 70.1551 14.3988 70.5551 13.9988C70.9551 13.4988 71.5551 13.2988 72.2551 13.2988C72.9551 13.2988 73.4551 13.4988 73.8551 13.9988C74.2551 14.3988 74.4551 14.9988 74.4551 15.6988ZM73.3551 15.6988C73.3551 15.2988 73.2551 14.8988 73.0551 14.5988C72.8551 14.1988 72.5551 14.0988 72.1551 14.0988C71.7551 14.0988 71.4551 14.2988 71.2551 14.5988C71.0551 14.8988 70.9551 15.2988 70.9551 15.6988C70.9551 16.0988 71.0551 16.4988 71.2551 16.7988C71.4551 17.1988 71.7551 17.2988 72.1551 17.2988C72.5551 17.2988 72.8551 17.0988 73.0551 16.6988C73.2551 16.4988 73.3551 16.0988 73.3551 15.6988Z" fill="#545659"/>
<path d="M79.3563 17.9988H78.4563L78.3563 17.4988C78.0563 17.8988 77.5564 18.0988 77.0564 18.0988C76.6564 18.0988 76.2564 17.9988 76.0564 17.6988C75.8564 17.3988 75.6562 17.0988 75.6562 16.7988C75.6562 16.1988 75.8563 15.7988 76.3563 15.4988C76.8563 15.1988 77.4563 15.0988 78.3563 15.0988V14.9988C78.3563 14.3988 78.0563 14.0988 77.4563 14.0988C76.9563 14.0988 76.6563 14.1988 76.2563 14.3988L76.0564 13.6988C76.4564 13.3988 76.9562 13.2988 77.6562 13.2988C78.8563 13.2988 79.4563 13.8988 79.4563 15.1988V16.8988C79.2563 17.3988 79.3563 17.6988 79.3563 17.9988ZM78.2563 16.3988V15.6988C77.1563 15.6988 76.5564 15.9988 76.5564 16.5988C76.5564 16.7988 76.6563 16.9988 76.7563 17.0988C76.8563 17.1988 77.0563 17.2988 77.2563 17.2988C77.4563 17.2988 77.6563 17.1988 77.8563 17.0988C78.0563 16.9988 78.1563 16.7988 78.2563 16.5988C78.2563 16.5988 78.2563 16.4988 78.2563 16.3988Z" fill="#545659"/>
<path d="M85.1555 17.9988H84.2555V17.2988C83.9555 17.8988 83.4555 18.0988 82.7555 18.0988C82.1555 18.0988 81.7555 17.8988 81.3555 17.4988C80.9555 17.0988 80.8555 16.4988 80.8555 15.7988C80.8555 15.0988 81.0555 14.4988 81.4555 13.9988C81.7555 13.4988 82.2555 13.2988 82.7555 13.2988C83.3555 13.2988 83.7555 13.4988 84.0555 13.8988V11.2988H85.0555V16.6988C85.0555 17.1988 85.1555 17.5988 85.1555 17.9988ZM84.0555 16.0988V15.2988C84.0555 15.1988 84.0555 15.0988 84.0555 14.9988C83.9555 14.7988 83.8555 14.5988 83.6555 14.3988C83.4555 14.1988 83.2555 14.1988 82.9555 14.1988C82.5555 14.1988 82.2555 14.3988 82.0555 14.6988C81.8555 14.9988 81.7555 15.3988 81.7555 15.8988C81.7555 16.3988 81.8555 16.6988 82.0555 16.9988C82.2555 17.2988 82.5555 17.4988 82.9555 17.4988C83.2555 17.4988 83.5555 17.3988 83.7555 17.0988C83.9555 16.6988 84.0555 16.3988 84.0555 16.0988Z" fill="#545659"/>
<path d="M93.8555 15.6988C93.8555 16.3988 93.6555 16.9988 93.2555 17.3988C92.8555 17.8988 92.2555 18.0988 91.5555 18.0988C90.8555 18.0988 90.3555 17.8988 89.9555 17.3988C89.5555 16.9988 89.3555 16.3988 89.3555 15.6988C89.3555 14.9988 89.5555 14.3988 89.9555 13.9988C90.3555 13.4988 90.9555 13.2988 91.6555 13.2988C92.3555 13.2988 92.8555 13.4988 93.2555 13.9988C93.6555 14.3988 93.8555 14.9988 93.8555 15.6988ZM92.7555 15.6988C92.7555 15.2988 92.6555 14.8988 92.4555 14.5988C92.2555 14.1988 91.9555 14.0988 91.5555 14.0988C91.1555 14.0988 90.8555 14.2988 90.6555 14.5988C90.4555 14.8988 90.3555 15.2988 90.3555 15.6988C90.3555 16.0988 90.4555 16.4988 90.6555 16.7988C90.8555 17.1988 91.1555 17.2988 91.5555 17.2988C91.9555 17.2988 92.2555 17.0988 92.4555 16.6988C92.6555 16.4988 92.7555 16.0988 92.7555 15.6988Z" fill="#545659"/>
<path d="M99.2555 17.9992H98.2555V15.3992C98.2555 14.5992 97.9555 14.1992 97.3555 14.1992C97.0555 14.1992 96.8555 14.2992 96.6555 14.4992C96.4555 14.6992 96.3555 14.9992 96.3555 15.2992V17.9992H95.3555V14.6992C95.3555 14.2992 95.3555 13.8992 95.3555 13.3992H96.2555V14.0992C96.3555 13.8992 96.5555 13.6992 96.7555 13.4992C97.0555 13.2992 97.3555 13.1992 97.6555 13.1992C98.0555 13.1992 98.4555 13.2992 98.7555 13.5992C99.1555 13.8992 99.2555 14.3992 99.2555 15.0992V17.9992Z" fill="#545659"/>
<path d="M106.155 14.1988H105.055V16.3988C105.055 16.9988 105.255 17.1988 105.655 17.1988C105.855 17.1988 105.955 17.1988 106.155 17.1988V17.9988C105.955 18.0988 105.655 18.0988 105.355 18.0988C104.955 18.0988 104.655 17.9988 104.455 17.6988C104.255 17.4988 104.155 16.9988 104.155 16.4988V14.1988H103.455V13.3988H104.155V12.5988L105.155 12.2988V13.3988H106.255V14.1988H106.155Z" fill="#545659"/>
<path d="M111.556 17.9988H110.556V15.3988C110.556 14.5988 110.256 14.1988 109.656 14.1988C109.156 14.1988 108.856 14.3988 108.656 14.8988C108.656 14.9988 108.656 15.0988 108.656 15.2988V17.9988H107.656V11.2988H108.656V14.0988C108.956 13.5988 109.456 13.2988 110.056 13.2988C110.456 13.2988 110.856 13.3988 111.056 13.6988C111.356 13.9988 111.556 14.5988 111.556 15.1988V17.9988Z" fill="#545659"/>
<path d="M117.057 15.5004C117.057 15.7004 117.057 15.8004 117.057 16.0004H114.057C114.057 16.5004 114.257 16.8004 114.457 17.0004C114.757 17.2004 115.057 17.3004 115.457 17.3004C115.957 17.3004 116.357 17.2004 116.657 17.1004L116.857 17.8004C116.457 18.0004 115.957 18.1004 115.357 18.1004C114.657 18.1004 114.057 17.9004 113.657 17.5004C113.257 17.1004 113.057 16.5004 113.057 15.8004C113.057 15.1004 113.257 14.5004 113.657 14.1004C114.057 13.6004 114.557 13.4004 115.257 13.4004C115.957 13.4004 116.457 13.6004 116.757 14.1004C116.957 14.4004 117.057 14.9004 117.057 15.5004ZM116.057 15.2004C116.057 14.9004 115.957 14.6004 115.857 14.4004C115.657 14.1004 115.457 14.0004 115.057 14.0004C114.757 14.0004 114.457 14.1004 114.257 14.4004C114.057 14.6004 113.957 14.9004 113.957 15.2004H116.057Z" fill="#545659"/>
</g>
<defs>
<clipPath id="clip0_349_2674">
<rect width="132" height="50" fill="white"/>
</clipPath>
</defs>
</svg>
