<svg width="132" height="50" viewBox="0 0 132 50" fill="none" xmlns="http://www.w3.org/2000/svg">
<g clip-path="url(#clip0_349_2660)">
<path d="M128 0H4C1.79086 0 0 1.79086 0 4V46C0 48.2091 1.79086 50 4 50H128C130.209 50 132 48.2091 132 46V4C132 1.79086 130.209 0 128 0Z" fill="white"/>
<path fill-rule="evenodd" clip-rule="evenodd" d="M12 26.3988V15.8988C12 15.2988 12.5 14.7988 13 14.7988C13.5 14.7988 13.7 14.8988 14 15.0988L33.3 25.6988C33.7 25.8988 33.9 26.1988 33.9 26.4988C33.9 26.7988 33.7 27.0988 33.3 27.2988L14 37.7988C13.8 37.8988 13.5 38.0988 13 38.0988C12.5 38.0988 12 37.5988 12 36.9988V26.3988Z" fill="url(#paint0_linear_349_2660)"/>
<path fill-rule="evenodd" clip-rule="evenodd" d="M24.4998 26.4988L12.7998 14.7988C12.8998 14.7988 12.8998 14.7988 12.9998 14.7988C13.4998 14.7988 13.6998 14.8988 13.9998 15.0988L28.1998 22.7988L24.4998 26.4988Z" fill="url(#paint1_linear_349_2660)"/>
<path fill-rule="evenodd" clip-rule="evenodd" d="M28.1 29.9988L24.5 26.3988L28.2 22.7988L33.3 25.5988C33.7 25.7988 33.9 26.0988 33.9 26.3988C33.9 26.6988 33.7 26.9988 33.3 27.1988L28.1 29.9988Z" fill="url(#paint2_linear_349_2660)"/>
<path fill-rule="evenodd" clip-rule="evenodd" d="M12.9004 38.0004L24.5004 26.4004L28.1004 30.0004L14.0004 37.8004C13.7004 37.9004 13.5004 38.0004 12.9004 38.0004C13.0004 38.0004 13.0004 38.0004 12.9004 38.0004Z" fill="url(#paint3_linear_349_2660)"/>
<path fill-rule="evenodd" clip-rule="evenodd" d="M73.2996 40.6988C72.7996 40.2988 72.3996 39.5988 72.1996 39.1988L73.7996 38.4988C73.8996 38.6988 74.0996 38.9988 74.2996 39.2988C74.6996 39.6988 75.2996 40.0988 75.8996 40.0988C76.4996 40.0988 77.1996 39.7988 77.5996 39.2988C77.8996 38.7988 78.0996 38.2988 78.0996 37.5988V36.9988C76.8996 38.4988 74.3996 38.2988 72.9996 36.6988C71.4996 35.0988 71.4996 32.3988 72.9996 30.7988C74.4996 29.2988 76.6996 29.0988 77.9996 30.4988V29.7988H79.6996V37.3988C79.6996 39.2988 78.9996 40.3988 78.0996 41.0988C77.4996 41.5988 76.5996 41.7988 75.7996 41.7988C74.8996 41.5988 73.9996 41.2988 73.2996 40.6988ZM115.2 41.0988L116.9 37.0988L113.9 30.1988H115.6L117.7 35.0988L119.8 30.1988H121.5L116.9 41.0988H115.2ZM107.1 37.2988C106.6 36.7988 106.4 36.0988 106.4 35.3988C106.4 34.7988 106.6 34.1988 107 33.7988C107.7 33.0988 108.7 32.7988 109.8 32.7988C110.5 32.7988 111.1 32.8988 111.6 33.1988C111.6 31.9988 110.6 31.4988 109.8 31.4988C109.1 31.4988 108.4 31.8988 108.1 32.5988L106.6 31.9988C106.9 31.2988 107.7 29.9988 109.7 29.9988C110.7 29.9988 111.7 30.2988 112.3 30.9988C112.9 31.6988 113.1 32.4988 113.1 33.5988V37.7988H111.4V37.0988C111.2 37.3988 110.8 37.5988 110.5 37.7988C110.1 37.9988 109.6 38.0988 109.1 38.0988C108.5 37.9988 107.6 37.7988 107.1 37.2988ZM53.7996 33.6988C53.7996 31.6988 55.2996 29.4988 57.9996 29.4988C60.5996 29.4988 62.1996 31.6988 62.1996 33.6988C62.1996 35.6988 60.6996 37.8988 57.9996 37.8988C55.2996 37.8988 53.7996 35.6988 53.7996 33.6988ZM62.7996 33.6988C62.7996 31.6988 64.2996 29.4988 66.9996 29.4988C69.5996 29.4988 71.1996 31.6988 71.1996 33.6988C71.1996 35.6988 69.6996 37.8988 66.9996 37.8988C64.3996 37.8988 62.7996 35.6988 62.7996 33.6988ZM42.4996 35.8988C39.9996 33.3988 40.0996 29.2988 42.5996 26.6988C43.8996 25.3988 45.4996 24.7988 47.1996 24.7988C48.7996 24.7988 50.3996 25.3988 51.5996 26.5988L50.3996 27.8988C48.5996 26.0988 45.6996 26.1988 43.9996 27.9988C42.1996 29.8988 42.1996 32.7988 43.9996 34.6988C45.7996 36.5988 48.7996 36.6988 50.5996 34.7988C51.1996 34.1988 51.3996 33.3988 51.4996 32.5988H47.1996V30.7988H53.0996C53.1996 31.1988 53.1996 31.6988 53.1996 32.1988C53.1996 33.6988 52.5996 35.1988 51.5996 36.1988C50.4996 37.2988 48.8996 37.8988 47.2996 37.8988C45.5996 37.7988 43.7996 37.1988 42.4996 35.8988ZM84.7996 36.5988C83.2996 34.9988 83.2996 32.2988 84.7996 30.5988C86.2996 28.9988 88.7996 28.9988 90.1996 30.5988C90.6996 31.0988 90.9996 31.7988 91.2996 32.4988L85.7996 34.7988C86.0996 35.4988 86.7996 36.0988 87.7996 36.0988C88.6996 36.0988 89.2996 35.7988 89.8996 34.8988L91.3996 35.8988C91.1996 36.0988 90.9996 36.2988 90.8996 36.4988C89.1996 38.1988 86.2996 38.1988 84.7996 36.5988ZM95.1996 37.7988V26.6988H98.7996C100.9 26.6988 102.6 28.1988 102.6 29.9988C102.6 31.7988 101.1 33.2988 99.1996 33.2988H96.9996V37.7988H95.1996ZM103.6 37.7988V26.6988H105.3V37.7988H103.6ZM80.9996 37.5988V25.1988H82.7996V37.5988H80.9996ZM111.5 34.4988C111.1 34.1988 110.5 34.0988 109.9 34.0988C108.7 34.0988 108 34.6988 108 35.3988C108 36.0988 108.7 36.4988 109.4 36.4988C110.4 36.4988 111.5 35.6988 111.5 34.4988ZM60.2996 33.6988C60.2996 32.4988 59.4996 31.1988 57.9996 31.1988C56.4996 31.1988 55.6996 32.4988 55.6996 33.6988C55.6996 34.8988 56.4996 36.1988 57.9996 36.1988C59.3996 36.1988 60.2996 34.8988 60.2996 33.6988ZM69.2996 33.6988C69.2996 32.4988 68.4996 31.1988 66.9996 31.1988C65.4996 31.1988 64.6996 32.4988 64.6996 33.6988C64.6996 34.8988 65.4996 36.1988 66.9996 36.1988C68.4996 36.1988 69.2996 34.8988 69.2996 33.6988ZM78.1996 34.3988C78.1996 34.2988 78.1996 34.1988 78.2996 34.0988C78.2996 33.9988 78.2996 33.7988 78.2996 33.6988C78.2996 33.5988 78.2996 33.3988 78.2996 33.2988V33.1988C78.2996 33.0988 78.1996 32.8988 78.1996 32.7988C77.8996 31.7988 76.9996 31.0988 76.0996 31.0988C74.8996 31.0988 73.8996 32.2988 73.8996 33.5988C73.8996 34.9988 74.8996 36.0988 76.1996 36.0988C76.9996 36.1988 77.7996 35.4988 78.1996 34.3988ZM85.4996 33.4988L89.1996 31.8988C88.7996 31.1988 88.1996 30.9988 87.6996 30.9988C86.1996 31.0988 85.2996 32.6988 85.4996 33.4988ZM100.8 30.0988C100.8 29.0988 99.9996 28.3988 98.8996 28.3988H96.8996V31.8988H98.9996C99.9996 31.8988 100.8 31.0988 100.8 30.0988Z" fill="#31C5A1"/>
<path d="M41.0996 16.9C41.0996 15.1 42.3996 14 43.9996 14C45.0996 14 45.7996 14.5 46.2996 15.2L45.4996 15.7C45.1996 15.2 44.6996 14.8 44.0996 14.8C42.9996 14.8 42.1996 15.6 42.1996 16.8C42.1996 18 42.9996 18.8 44.0996 18.8C44.6996 18.8 45.1996 18.5 45.3996 18.3V17.4H43.6996V16.6H46.3996V18.7C45.8996 19.3 45.0996 19.7 44.0996 19.7C42.3996 19.8 41.0996 18.6 41.0996 16.9Z" fill="#545659"/>
<path d="M47.5996 19.7V14H51.3996V14.9H48.4996V16.3H51.2996V17.2H48.4996V18.8H51.3996V19.7H47.5996Z" fill="#545659"/>
<path d="M54.2 19.7V14.9H52.5V14H56.9V14.9H55.2V19.6H54.2V19.7Z" fill="#545659"/>
<path d="M60.3008 19.7V14H61.3008V19.6H60.3008V19.7Z" fill="#545659"/>
<path d="M64.0008 19.7V14.9H62.3008V14H66.7008V14.9H65.0008V19.6H64.0008V19.7Z" fill="#545659"/>
<path d="M69.9004 16.9C69.9004 15.2 71.1004 14 72.8004 14C74.5004 14 75.7004 15.2 75.7004 16.9C75.7004 18.6 74.4004 19.8 72.7004 19.8C71.1004 19.8 69.9004 18.5 69.9004 16.9ZM74.6004 16.9C74.6004 15.7 73.9004 14.9 72.7004 14.9C71.6004 14.9 70.8004 15.8 70.8004 16.9C70.8004 18.1 71.5004 18.9 72.7004 18.9C73.9004 18.9 74.6004 18 74.6004 16.9Z" fill="#545659"/>
<path d="M80.7008 19.7L77.8008 15.7V19.7H76.8008V14H77.8008L80.7008 17.9V14H81.7008V19.6H80.7008V19.7Z" fill="#545659"/>
</g>
<defs>
<linearGradient id="paint0_linear_349_2660" x1="18.4674" y1="13.3724" x2="24.0656" y2="36.3633" gradientUnits="userSpaceOnUse">
<stop stop-color="#006884"/>
<stop offset="1" stop-color="#8AD1D0"/>
</linearGradient>
<linearGradient id="paint1_linear_349_2660" x1="11.6405" y1="16.6426" x2="26.8965" y2="24.8901" gradientUnits="userSpaceOnUse">
<stop stop-color="#24BBB6"/>
<stop offset="1" stop-color="#DBE692"/>
</linearGradient>
<linearGradient id="paint2_linear_349_2660" x1="29.1944" y1="30.4189" x2="29.1944" y2="22.4705" gradientUnits="userSpaceOnUse">
<stop stop-color="#FCC072"/>
<stop offset="1" stop-color="#F58A5B"/>
</linearGradient>
<linearGradient id="paint3_linear_349_2660" x1="14.5951" y1="40.0696" x2="26.6468" y2="27.8043" gradientUnits="userSpaceOnUse">
<stop stop-color="#712B8F"/>
<stop offset="1" stop-color="#EA1D27"/>
</linearGradient>
<clipPath id="clip0_349_2660">
<rect width="132" height="50" fill="white"/>
</clipPath>
</defs>
</svg>
