<svg width="150" height="40" viewBox="0 0 150 40" fill="none" xmlns="http://www.w3.org/2000/svg">
<g clip-path="url(#clip0_349_2346)">
<path d="M43.0022 20.7713L33.5905 30.183L26.3694 37.3636L25.558 38.1343C25.3958 38.2966 25.2335 38.4183 25.0712 38.54C24.9901 38.5806 24.9089 38.6617 24.9089 38.6617L24.4627 38.9863C21.8663 40.609 18.3775 40.2439 16.1463 38.0126L1.25782 22.9619C-0.446033 21.2175 -0.405465 18.4183 1.33896 16.7145L17.2822 1.25807C19.0266 -0.405222 21.7446 -0.405222 23.4485 1.29863L26.5722 4.42237L26.6939 4.54407L35.1321 12.9416L43.0022 20.7713Z" fill="#24C6A1"/>
<path d="M43.0019 20.7708L33.5902 30.1825L26.3691 37.3631L25.5577 38.1338C25.3955 38.2961 25.2332 38.4178 25.0709 38.5395C24.9898 38.5801 24.9086 38.6612 24.9086 38.6612L24.4624 38.9858C24.6652 38.7424 26.6936 36.2677 24.1378 33.0629L14.2393 22.8803C12.5354 21.1359 12.576 18.3367 14.3204 16.6328L26.5719 4.42188L26.6936 4.54358L35.1318 12.9411L43.0019 20.7708Z" fill="#0FA47F"/>
<path d="M44.341 10.427L41.0956 7.1004L35.7406 1.5426C34.0773 -0.201831 31.2782 -0.242399 29.5337 1.42089L27.5865 3.40872L26.5723 4.42292L26.694 4.54462L33.7528 11.5629C34.483 12.2931 34.483 13.5102 33.7528 14.2404L28.8035 19.0274C27.0591 20.7313 27.0185 23.5304 28.7629 25.2749L33.6311 30.1836L43.0023 20.7718L44.3005 19.5142C46.7751 16.999 46.8157 12.9422 44.341 10.427Z" fill="#5718FF"/>
<path d="M58.1338 9.16829C58.1338 7.70784 59.0263 6.89648 60.6084 6.89648C62.1906 6.89648 63.0425 7.70784 63.0425 9.16829C63.0425 10.6287 62.1906 11.4807 60.6084 11.4807C59.0263 11.4401 58.1338 10.5882 58.1338 9.16829ZM62.3934 31.4807H58.7423V14.3204H62.3934V31.4807Z" fill="#112945"/>
<path d="M78.0117 14.3202L77.4438 17.6873C76.9569 17.4034 76.2267 17.2411 75.2937 17.2411C73.2247 17.2411 70.9529 18.9044 70.9529 22.3932V31.4804H67.3018V14.3202H70.4255L70.75 17.4034C71.6831 15.1721 73.5087 13.9551 76.1862 13.9551C76.8352 13.9956 77.5249 14.0768 78.0117 14.3202Z" fill="#112945"/>
<path d="M96.2681 22.921C96.2681 28.5194 93.0633 31.846 87.7083 31.846C82.3533 31.846 79.1484 28.5194 79.1484 22.921C79.1484 17.3227 82.3533 13.9961 87.7083 13.9961C93.0633 13.9961 96.2681 17.3227 96.2681 22.921ZM82.8807 22.921C82.8807 26.8156 84.6251 28.9657 87.7083 28.9657C90.7914 28.9657 92.5764 26.8156 92.5764 22.921C92.5764 19.0265 90.7914 16.8764 87.7083 16.8764C84.6251 16.8764 82.8807 19.0265 82.8807 22.921Z" fill="#112945"/>
<path d="M110.832 14.3202L110.264 17.6873C109.777 17.4034 109.047 17.2411 108.114 17.2411C106.045 17.2411 103.773 18.9044 103.773 22.3932V31.4804H100.122V14.3202H103.246L103.57 17.4034C104.503 15.1721 106.329 13.9551 109.006 13.9551C109.656 13.9956 110.345 14.0768 110.832 14.3202Z" fill="#112945"/>
<path d="M129.006 14.3203V31.4806H125.761L125.639 28.7219C124.422 30.872 122.272 31.8457 119.554 31.8457C116.106 31.8457 113.388 30.1012 113.388 25.6388V14.3203H117.039V24.6246C117.039 27.8294 118.418 28.7625 120.568 28.7625C123.165 28.7625 125.355 27.1804 125.355 23.5292V14.3203H129.006Z" fill="#112945"/>
<path d="M149.493 20.3648V31.4804H145.842V21.5413C145.842 18.1336 144.259 16.9977 142.19 16.9977C139.919 16.9977 137.525 18.4581 137.525 22.3932V31.4804H133.874V14.3202H137.119L137.282 17.1599C138.458 14.9287 140.608 13.9551 143.083 13.9551C146.693 13.9956 149.493 16.0646 149.493 20.3648Z" fill="#112945"/>
</g>
<defs>
<clipPath id="clip0_349_2346">
<rect width="150" height="40" fill="white"/>
</clipPath>
</defs>
</svg>
