<svg width="53" height="60" viewBox="0 0 53 60" fill="none" xmlns="http://www.w3.org/2000/svg">
<path d="M0 5C0 2.23858 2.23858 0 5 0H48C50.7614 0 53 2.23858 53 5V55C53 57.7614 50.7614 60 48 60H5C2.23858 60 0 57.7614 0 55V5Z" fill="#EEEAFF"/>
<path d="M21.6472 4.6875C22.4422 4.6875 23.0874 4.26843 23.0874 3.75C23.0874 3.23157 22.4422 2.8125 21.6472 2.8125H21.6327C20.8377 2.8125 20.2012 3.23157 20.2012 3.75C20.2012 4.26843 20.8522 4.6875 21.6472 4.6875Z" fill="#582EFF"/>
<path d="M25.9236 4.6875H30.2443C31.0407 4.6875 31.6845 4.26843 31.6845 3.75C31.6845 3.23157 31.0407 2.8125 30.2443 2.8125H25.9236C25.1272 2.8125 24.4834 3.23157 24.4834 3.75C24.4834 4.26843 25.1272 4.6875 25.9236 4.6875Z" fill="#582EFF"/>
<path d="M43.2252 0.0028125C43.218 0.0028125 43.2137 0 43.2065 0H8.6413C3.87561 0 0 2.5228 0 5.625V53.4375C0 57.0554 4.52373 60 10.0815 60H41.7663C47.3242 60 51.8478 57.0554 51.8478 53.4375V5.62687C51.8478 2.52843 47.9809 0.009375 43.2252 0.0028125ZM8.6413 1.875H43.1922C43.198 1.875 43.2008 1.87688 43.2065 1.87688C46.3838 1.87688 48.9674 3.55875 48.9674 5.62687H2.88043V5.625C2.88043 3.55687 5.46419 1.875 8.6413 1.875ZM41.7663 54.375H25.9239H10.0815C6.11085 54.375 2.88043 52.2721 2.88043 49.6875V48.75H25.9239H48.9674V49.6875C48.9674 52.2721 45.7369 54.375 41.7663 54.375ZM2.88043 7.50187H48.9674V46.875H2.88043V7.50187ZM41.7663 58.125H10.0815C6.59908 58.125 3.68841 56.507 3.02446 54.3657C4.84489 55.5291 7.33647 56.25 10.0815 56.25H41.7663C44.5115 56.25 47.0029 55.5291 48.8234 54.3657C48.1595 56.507 45.2486 58.125 41.7663 58.125Z" fill="#582EFF"/>
<path d="M30.2448 51.5625C30.2448 50.0118 28.3064 48.75 25.9242 48.75C23.5419 48.75 21.6035 50.0118 21.6035 51.5625C21.6035 53.1132 23.5419 54.375 25.9242 54.375C28.3064 54.375 30.2448 53.1132 30.2448 51.5625ZM25.9242 52.5C25.1292 52.5 24.484 52.08 24.484 51.5625C24.484 51.045 25.1292 50.625 25.9242 50.625C26.7192 50.625 27.3644 51.045 27.3644 51.5625C27.3644 52.08 26.7192 52.5 25.9242 52.5Z" fill="#582EFF"/>
<path d="M12.2138 32.8068C12.2239 32.8068 12.2326 32.8105 12.2426 32.8105H39.6069C41.5928 32.8105 43.2074 31.7596 43.2074 30.4668C43.2074 29.1739 41.5928 28.123 39.6069 28.123H12.2426C10.258 28.123 8.64355 29.1739 8.64355 30.4659C8.64355 31.7512 10.2422 32.7964 12.2138 32.8068ZM39.6069 29.998C40.0028 29.998 40.327 30.2089 40.327 30.4668C40.327 30.7246 40.0028 30.9355 39.6069 30.9355H12.257C12.2513 30.9355 12.2484 30.9337 12.2426 30.9337C11.8466 30.9337 11.524 30.7237 11.524 30.4659C11.524 30.208 11.8466 29.998 12.2426 29.998H39.6069Z" fill="#582EFF"/>
<path d="M39.6069 33.748H12.2426C10.258 33.748 8.64355 34.7989 8.64355 36.0909C8.64355 37.3762 10.2422 38.4214 12.2138 38.4318C12.2239 38.4318 12.2326 38.4355 12.2426 38.4355H39.6069C41.5928 38.4355 43.2074 37.3846 43.2074 36.0918C43.2074 34.7989 41.5928 33.748 39.6069 33.748ZM12.257 36.5605C12.2513 36.5605 12.2484 36.5587 12.2426 36.5587C11.8466 36.5587 11.524 36.3487 11.524 36.0909C11.524 35.833 11.8466 35.623 12.2426 35.623H39.6069C40.0028 35.623 40.327 35.8339 40.327 36.0918C40.327 36.3496 40.0028 36.5605 39.6069 36.5605H12.257Z" fill="#582EFF"/>
<path d="M33.1246 40.3125H18.7224C17.926 40.3125 17.2822 40.7316 17.2822 41.25C17.2822 41.7684 17.926 42.1875 18.7224 42.1875H33.1246C33.921 42.1875 34.5648 41.7684 34.5648 41.25C34.5648 40.7316 33.921 40.3125 33.1246 40.3125Z" fill="#582EFF"/>
<path d="M19.5187 24.748C19.5259 24.7527 19.5346 24.7555 19.5418 24.7593C21.2815 25.6884 23.5053 26.248 25.9263 26.248C31.4842 26.248 36.0078 23.3034 36.0078 19.6855C36.0078 16.0677 31.4842 13.123 25.9263 13.123C20.3684 13.123 15.8447 16.0677 15.8447 19.6855C15.8433 21.7218 17.2749 23.5434 19.5187 24.748ZM22.3603 23.7337C23.1523 22.9771 24.4746 22.498 25.9263 22.498C27.3767 22.498 28.6987 22.978 29.4909 23.7327C28.435 24.1293 27.2283 24.373 25.9249 24.373C24.6213 24.373 23.4159 24.1293 22.3603 23.7337ZM25.9249 20.623C25.1299 20.623 24.4847 20.203 24.4847 19.6855C24.4847 19.168 25.1299 18.748 25.9249 18.748C26.7199 18.748 27.3651 19.168 27.3651 19.6855C27.3651 20.203 26.7199 20.623 25.9249 20.623ZM25.9249 14.998C29.8955 14.998 33.126 17.1009 33.126 19.6855C33.126 20.7384 32.57 21.6993 31.6669 22.483C31.0809 21.9796 30.3377 21.57 29.5038 21.2577C29.9732 20.8096 30.2456 20.2677 30.2456 19.6855C30.2456 18.135 28.3069 16.873 25.9249 16.873C23.5427 16.873 21.6041 18.135 21.6041 19.6855C21.6041 20.2677 21.8778 20.8096 22.3459 21.2596C21.5134 21.5718 20.7688 21.9814 20.1841 22.485C19.2796 21.7002 18.7237 20.7384 18.7237 19.6855C18.7237 17.1009 21.9541 14.998 25.9249 14.998Z" fill="#582EFF"/>
</svg>
