<svg width="52" height="60" viewBox="0 0 52 60" fill="none" xmlns="http://www.w3.org/2000/svg">
<path d="M43.2252 0.0028125C43.218 0.0028125 43.2137 0 43.2065 0H8.6413C3.87561 0 0 2.5228 0 5.625V53.4375C0 57.0554 4.52373 60 10.0815 60H41.7663C47.3242 60 51.8478 57.0554 51.8478 53.4375V5.62687C51.8478 2.52843 47.9809 0.009375 43.2252 0.0028125ZM8.6413 1.875H43.1922C43.198 1.875 43.2008 1.87688 43.2065 1.87688C46.3838 1.87688 48.9674 3.55875 48.9674 5.62687H2.88043V5.625C2.88043 3.55687 5.46419 1.875 8.6413 1.875ZM41.7663 54.375H25.9239H10.0815C6.11085 54.375 2.88043 52.2721 2.88043 49.6875V48.75H25.9239H48.9674V49.6875C48.9674 52.2721 45.7369 54.375 41.7663 54.375ZM2.88043 7.50187H48.9674V46.875H2.88043V7.50187ZM41.7663 58.125H10.0815C6.59908 58.125 3.68841 56.507 3.02446 54.3657C4.84489 55.5291 7.33647 56.25 10.0815 56.25H41.7663C44.5115 56.25 47.0029 55.5291 48.8234 54.3657C48.1595 56.507 45.2486 58.125 41.7663 58.125Z" fill="#582EFF"/>
</svg>
